<?xml version="1.0" standalone="no"?>
<!DOCTYPE svg PUBLIC "-//W3C//DTD SVG 20010904//EN"
 "http://www.w3.org/TR/2001/REC-SVG-20010904/DTD/svg10.dtd">
<svg version="1.0" xmlns="http://www.w3.org/2000/svg"
 width="402.000000pt" height="402.000000pt" viewBox="0 0 402.000000 402.000000"
 preserveAspectRatio="xMidYMid meet">
<metadata>
Created by potrace 1.11, written by Peter Selinger 2001-2013
</metadata>
<g transform="translate(0.000000,402.000000) scale(0.100000,-0.100000)"
fill="#000000" stroke="none">
<path d="M357 2514 c-1 -1 -20 -4 -42 -7 -151 -19 -246 -166 -164 -253 31 -34
45 -15 20 28 -22 37 -21 66 4 104 20 32 86 64 129 64 39 0 166 -37 166 -49 0
-4 -33 -40 -74 -79 -55 -54 -70 -74 -61 -82 9 -7 16 -6 25 5 7 8 15 15 19 15
11 0 2 -284 -10 -307 -20 -37 -4 -37 50 2 l51 37 0 182 c0 162 2 185 18 198
15 14 21 14 54 1 l37 -15 -2 -256 -2 -257 -30 -5 c-37 -7 -115 12 -154 37 -75
48 -121 134 -126 231 -5 92 29 183 92 250 10 10 10 16 0 27 -10 12 -21 5 -68
-44 -31 -32 -69 -85 -85 -117 -25 -52 -29 -70 -29 -149 0 -104 18 -156 81
-224 50 -57 102 -81 183 -88 98 -8 157 14 232 87 62 61 72 80 39 80 -11 0 -20
-4 -20 -9 0 -8 -70 -61 -81 -61 -2 0 -4 112 -3 248 l0 248 63 60 c50 49 59 63
48 72 -11 9 -20 5 -42 -18 l-28 -29 -36 18 c-48 25 -113 42 -189 50 -34 4 -64
6 -65 5z"/>
<path d="M1991 2504 c-17 -7 -43 -26 -57 -41 -31 -34 -66 -98 -57 -107 12 -12
31 -6 36 13 11 42 101 71 130 42 11 -11 18 -183 9 -208 -2 -7 -10 -13 -18 -13
-61 0 -98 -74 -71 -143 10 -28 34 -9 29 22 -3 22 1 32 18 41 36 19 44 0 44
-116 l1 -107 -61 -17 c-34 -9 -75 -27 -92 -41 -90 -71 -86 -213 7 -276 34 -23
110 -39 137 -29 26 10 5 26 -34 26 -67 0 -142 68 -142 128 0 101 117 154 221
99 l44 -24 53 50 c28 28 52 54 52 59 0 13 -38 9 -42 -4 -3 -9 -19 -8 -61 7
l-56 19 2 60 c1 49 5 63 22 73 28 17 77 16 123 -2 33 -14 43 -26 67 -78 44
-98 76 -144 116 -167 21 -11 39 -17 42 -13 2 5 3 145 3 313 l-1 305 55 52 c41
38 52 55 44 63 -9 9 -19 5 -39 -14 -30 -28 -40 -25 -77 19 -17 20 -18 19 -82
-45 -42 -42 -63 -69 -58 -77 6 -9 15 -6 35 12 26 25 27 25 62 8 34 -16 35 -18
35 -73 0 -54 -1 -56 -33 -68 -44 -16 -80 -15 -122 2 -29 12 -42 29 -73 94 -43
88 -77 138 -101 148 -43 18 -80 21 -110 8z m115 -156 c4 -13 35 -83 70 -156
35 -74 64 -137 64 -142 0 -5 -13 -4 -30 1 -26 10 -65 9 -110 -2 -13 -3 -15 19
-16 159 -1 153 5 191 22 140z m258 -132 c28 3 54 8 59 11 4 2 7 -70 7 -161 0
-95 -4 -166 -9 -166 -5 0 -22 26 -37 58 -64 134 -124 264 -124 268 0 2 12 -1
27 -7 15 -5 49 -7 77 -3z"/>
<path d="M3085 2378 c-52 -19 -133 -78 -155 -113 -32 -52 -37 -125 -11 -175
17 -33 21 -58 21 -136 0 -90 -2 -97 -25 -115 -14 -12 -22 -26 -18 -35 5 -13 8
-13 24 2 16 15 20 15 43 -3 14 -10 26 -21 26 -25 0 -16 27 -7 73 22 26 17 51
30 56 30 4 0 23 -13 41 -30 18 -16 35 -30 36 -30 2 0 24 13 51 30 34 21 67 32
111 36 40 5 62 11 62 20 0 7 -8 14 -17 16 -14 3 -17 17 -16 113 l1 109 32 26
c23 19 28 28 19 37 -9 9 -16 7 -32 -8 -21 -19 -21 -19 -57 16 l-35 34 -48 -41
c-34 -29 -45 -44 -38 -51 8 -8 14 -8 23 1 9 9 17 7 35 -10 21 -20 23 -30 23
-129 l0 -107 -30 -12 c-28 -11 -33 -10 -54 9 -21 20 -23 30 -24 136 0 113 -11
174 -36 194 -9 8 -26 0 -64 -33 -42 -36 -49 -46 -38 -56 10 -7 16 -8 21 0 12
19 23 10 31 -22 11 -50 7 -198 -6 -213 -20 -24 -50 -28 -71 -9 -17 15 -19 31
-19 135 0 109 -2 121 -25 155 -35 51 -33 94 7 139 17 20 51 46 75 57 24 11 43
26 43 34 0 8 -1 14 -2 13 -2 0 -16 -5 -33 -11z"/>
<path d="M764 2176 c-18 -29 -11 -49 37 -108 l39 -46 -45 -40 c-40 -36 -73
-90 -70 -117 5 -47 19 -68 57 -85 33 -15 44 -16 52 -6 6 7 32 29 57 50 l46 36
6 -27 c3 -16 12 -37 20 -47 14 -19 16 -19 38 -4 56 39 82 65 75 77 -6 9 -11 9
-23 0 -12 -10 -16 -10 -24 2 -10 15 -11 26 -13 148 -1 80 0 85 27 107 15 12
27 27 27 33 0 14 -23 14 -37 0 -9 -9 -20 -4 -43 20 l-31 31 -26 -31 c-14 -16
-44 -39 -67 -51 -22 -11 -35 -14 -28 -7 6 7 12 23 12 35 0 44 -62 65 -86 30z
m171 -181 l0 -95 -35 -29 c-43 -37 -54 -38 -85 -6 -34 33 -31 59 10 103 32 34
36 35 46 19 9 -15 13 -16 25 -6 13 10 9 18 -22 50 -21 21 -36 40 -33 42 25 17
76 33 85 26 6 -5 10 -47 9 -104z"/>
<path d="M1156 2156 c-29 -26 -46 -48 -42 -55 5 -8 13 -8 26 -1 26 14 33 -12
35 -130 2 -93 1 -96 -28 -127 -28 -30 -29 -33 -12 -39 11 -5 20 -3 23 4 11 35
17 0 18 -100 l0 -113 -31 -27 c-20 -19 -27 -30 -20 -37 7 -7 30 7 71 44 l61
54 -2 78 c-2 102 0 108 35 83 33 -23 46 -25 57 -7 17 29 70 53 121 56 6 1 12
8 12 17 0 10 -6 14 -15 10 -13 -5 -15 12 -15 112 l0 116 32 28 c28 24 30 28
14 34 -11 4 -21 2 -27 -7 -6 -11 -17 -7 -53 18 l-44 31 -54 -48 c-53 -48 -68
-53 -68 -22 0 9 -10 29 -23 44 l-22 27 -49 -43z m197 -50 c15 -11 17 -31 17
-140 l0 -128 -31 26 c-17 14 -41 26 -55 26 -13 0 -24 3 -25 8 -1 4 -2 39 -3
77 -2 68 -1 71 33 108 39 41 39 41 64 23z"/>
<path d="M2721 2174 c-34 -24 -90 -44 -126 -44 -24 0 -52 -16 -43 -25 3 -3 15
-7 27 -8 11 -1 21 -4 22 -7 0 -3 2 -52 2 -110 2 -102 1 -106 -26 -137 -18 -21
-24 -34 -16 -38 6 -4 15 -3 21 3 7 7 22 3 49 -14 21 -13 43 -24 48 -24 9 0
156 92 170 105 2 3 -3 7 -12 11 -9 3 -34 -7 -59 -24 -40 -28 -45 -29 -71 -16
-21 12 -26 20 -23 45 2 16 5 31 7 33 2 2 46 31 97 65 l93 62 -47 59 c-71 90
-73 91 -113 64z m30 -103 l36 -47 -48 -32 c-27 -18 -50 -32 -52 -32 -3 0 -2
138 1 153 5 19 30 2 63 -42z"/>
<path d="M3613 2170 c-21 -16 -60 -34 -86 -41 -45 -11 -64 -29 -32 -29 16 0
17 -7 16 -87 l0 -52 54 -3 54 -3 -59 -80 c-70 -94 -80 -131 -26 -90 25 19 47
19 90 -1 33 -16 35 -16 68 9 19 15 57 31 86 38 33 7 52 16 52 25 0 8 -6 13
-12 11 -9 -1 -14 19 -16 70 l-3 72 -49 -3 c-28 -1 -50 1 -50 4 0 4 27 44 60
90 43 60 57 86 48 91 -7 5 -20 1 -29 -7 -23 -20 -72 -21 -102 -1 -23 15 -27
14 -64 -13z m69 -63 l46 0 -37 -51 c-30 -40 -43 -50 -67 -50 -28 0 -29 1 -32
58 -3 57 -3 59 20 51 13 -4 44 -8 70 -8z m37 -207 l2 -59 -30 10 c-31 11 -89
8 -112 -7 -8 -4 -2 8 12 27 14 18 34 46 45 61 13 20 28 27 50 28 l31 0 2 -60z"/>
</g>
</svg>
